<svg width="305" height="81" viewBox="0 0 305 81" fill="none" xmlns="http://www.w3.org/2000/svg">
<path d="M64.8643 47.1222C71.4779 50.5297 75.6271 56.7285 74.9209 63.3332C73.9367 72.5341 63.9012 79.0394 52.5049 77.8625C41.1086 76.6855 32.6682 68.2723 33.6523 59.0714C34.1029 54.8601 36.4503 51.214 39.9561 48.6105C41.4301 49.4831 43.0963 50.1876 44.9346 50.6798C51.7938 52.5164 59.3202 50.9629 64.8643 47.1222ZM23.1289 32.8175C26.4725 32.8175 29.644 33.5429 32.4893 34.841C27.4283 39.4589 24.2872 45.8938 24.2871 53.0128C24.2871 61.2342 28.4761 68.5432 34.9736 73.1945C31.5436 75.3178 27.4823 76.547 23.1289 76.547C10.8398 76.5468 0.877184 66.758 0.876953 54.6828C0.87698 42.6074 10.8397 32.8178 23.1289 32.8175ZM51.6113 4.83023C63.9004 4.83053 73.8631 14.6203 73.8633 26.6955C73.8631 38.7707 63.9004 48.5594 51.6113 48.5597C48.2676 48.5597 45.0964 47.8336 42.251 46.5353C47.3115 41.9174 50.4531 35.4832 50.4531 28.3644C50.453 20.1432 46.2651 12.833 39.7676 8.18179C43.1973 6.05906 47.2585 4.83023 51.6113 4.83023ZM44.3975 32.4435C45.3596 31.9758 46.3932 32.9437 45.9189 33.8683L41.3154 42.8351C41.2085 43.0432 41.033 43.2132 40.8164 43.3185L31.4863 47.8566C30.5242 48.3242 29.4906 47.3564 29.9648 46.4318L34.5684 37.465C34.6752 37.257 34.85 37.087 35.0664 36.9816L44.3975 32.4435ZM37.9414 38.1603C36.8425 38.1606 35.9512 39.0515 35.9512 40.1505C35.9515 41.2492 36.8427 42.1404 37.9414 42.1408C39.0404 42.1408 39.9313 41.2495 39.9316 40.1505C39.9316 39.0513 39.0406 38.1603 37.9414 38.1603ZM0.078125 17.6671C1.0623 8.46628 11.098 1.96099 22.4941 3.13785C33.8904 4.3148 42.3308 12.728 41.3467 21.9289C40.8961 26.1402 38.5487 29.7863 35.043 32.3898C33.5689 31.5172 31.9028 30.8128 30.0645 30.3205C23.2055 28.4839 15.6797 30.0387 10.1357 33.8791C3.52148 30.4717 -0.628111 24.2722 0.078125 17.6671Z" fill="#F7FBFC"/>
<path d="M126.579 18.385C126.649 19.12 126.649 20.03 126.649 20.555C126.404 27.205 121.644 32.525 113.839 32.525C106.314 32.525 100.644 26.54 100.644 19.225C100.644 11.91 106.559 5.89 113.839 5.89C118.179 5.89 121.959 7.99 124.374 11.175L122.659 12.155C121.644 12.715 120.874 12.54 119.929 11.735C118.284 10.23 116.184 9.355 113.839 9.355C108.659 9.355 104.634 13.905 104.634 19.225C104.634 24.475 108.414 28.955 113.734 29.06C118.494 29.13 122.309 26.19 122.624 21.955H115.064C113.804 21.955 113.069 21.29 113.069 19.995V18.385H126.579ZM130.886 32V6.38H132.951C134.141 6.38 134.946 7.15 134.946 8.375V28.64H146.041C147.231 28.64 148.036 29.445 148.036 30.635V32H130.886ZM161.656 32.525C153.886 32.525 148.461 26.54 148.461 19.19C148.461 11.875 153.886 5.855 161.656 5.855C169.461 5.855 174.921 11.875 174.921 19.19C174.921 26.54 169.461 32.525 161.656 32.525ZM152.486 19.19C152.486 24.545 156.406 29.06 161.656 29.06C166.941 29.06 170.896 24.58 170.896 19.19C170.896 13.905 166.941 9.32 161.656 9.32C156.406 9.32 152.486 13.87 152.486 19.19ZM184.727 32L176.012 6.38H178.497C179.617 6.38 180.492 7.01 180.842 8.06L185.707 23.145L191.867 6.38H193.197L199.427 23.18L204.257 8.095C204.607 7.01 205.482 6.38 206.602 6.38H209.122L200.372 32H199.182L192.532 14.675L185.882 32H184.727ZM221.599 32V6.38H223.664C224.854 6.38 225.659 7.15 225.659 8.375V28.64H236.754C237.944 28.64 238.749 29.445 238.749 30.635V32H221.599ZM243.906 32C242.646 32 241.911 31.23 241.911 29.865V6.38H243.941C245.131 6.38 245.936 7.15 245.936 8.375V32H243.906ZM251.916 32V6.38H253.316L270.221 24.09V8.445C270.221 7.185 271.026 6.38 272.286 6.38H274.246V32H272.811L255.941 14.29V29.935C255.941 31.195 255.136 32 253.911 32H251.916ZM279.841 32V6.38H297.866V7.815C297.866 9.04 297.166 9.74 295.906 9.74H283.866V17.685H294.891V19.05C294.891 20.31 294.191 21.01 292.931 21.01H283.866V28.64H295.871C297.096 28.64 297.866 29.445 297.866 30.635V32H279.841Z" fill="#F7FBFC"/>
<path d="M102.039 72V44.184H112.869C121.153 44.184 126.739 49.01 126.739 58.092C126.739 67.136 121.191 72.038 112.869 72H102.039ZM106.409 68.352H112.451C116.175 68.352 122.331 66.718 122.331 58.13C122.331 49.504 116.137 47.794 112.451 47.794H106.409V68.352ZM134.089 72C132.721 72 131.923 71.164 131.923 69.682V44.184H134.127C135.419 44.184 136.293 45.02 136.293 46.35V72H134.089ZM152.443 72.57C147.313 72.57 143.855 71.012 140.929 68.732L141.879 67.364C142.601 66.262 143.703 66.148 144.919 66.794C147.085 68.01 149.669 68.846 152.291 68.846C156.243 68.846 158.447 67.098 158.447 64.438C158.447 61.208 155.179 60.562 151.417 59.802C148.111 59.156 140.929 58.358 140.929 52.012C140.929 45.666 146.743 43.728 151.265 43.728C155.331 43.728 158.523 44.982 161.145 46.92L160.195 48.25C159.473 49.352 158.333 49.542 157.155 48.972C155.179 47.984 153.241 47.452 151.037 47.452C148.719 47.452 145.299 48.402 145.299 51.822C145.299 55.128 150.011 55.66 153.089 56.23C157.193 56.914 162.817 58.016 162.817 64.286C162.817 69.834 158.561 72.57 152.443 72.57ZM180.349 72.57C171.875 72.57 166.023 66.224 166.023 58.13C166.023 50.036 171.875 43.69 180.349 43.69C185.973 43.69 189.811 46.16 192.167 49.998L190.191 50.948C189.013 51.518 188.291 51.1 187.455 50.34C185.707 48.592 183.427 47.452 180.349 47.452C174.117 47.452 170.393 52.316 170.393 58.13C170.393 63.944 174.155 68.808 180.501 68.808C183.921 68.808 185.745 67.63 187.455 65.882C188.253 65.16 189.013 64.818 190.267 65.388L192.205 66.262C190.001 70.062 186.695 72.57 180.349 72.57ZM209.666 72.57C201.23 72.57 195.34 66.072 195.34 58.092C195.34 50.15 201.23 43.614 209.666 43.614C218.14 43.614 224.068 50.15 224.068 58.092C224.068 66.072 218.14 72.57 209.666 72.57ZM199.71 58.092C199.71 63.906 203.966 68.808 209.666 68.808C215.404 68.808 219.698 63.944 219.698 58.092C219.698 52.354 215.404 47.376 209.666 47.376C203.966 47.376 199.71 52.316 199.71 58.092ZM237.119 72L224.389 44.184H227.467C228.645 44.184 229.519 44.754 229.975 45.818L237.765 63.906L245.707 45.818C246.163 44.754 247.037 44.184 248.177 44.184H251.179L238.411 72H237.119ZM254.076 72V44.184H273.646V45.742C273.646 47.072 272.886 47.832 271.518 47.832H258.446V56.458H270.416V57.94C270.416 59.308 269.656 60.068 268.288 60.068H258.446V68.352H271.48C272.81 68.352 273.646 69.226 273.646 70.518V72H254.076ZM277.232 72V44.184H289.734C295.282 44.184 299.12 48.06 299.12 53.57C299.12 57.864 296.726 61.246 292.318 62.082L299.576 72H296.118C295.092 72 294.18 71.582 293.572 70.708L287.796 62.614H281.602V69.758C281.602 71.126 280.728 72 279.36 72H277.232ZM281.602 59.004H289.164C291.71 59.004 294.788 57.37 294.788 53.494C294.788 51.252 293.534 47.832 289.164 47.832H281.602V59.004Z" fill="#F7FBFC"/>
</svg>
