<svg width="269" height="36" viewBox="0 0 269 36" fill="none" xmlns="http://www.w3.org/2000/svg">
<g clip-path="url(#clip0_231_419)">
<path d="M188.749 35.1647H251.616C253.899 35.1647 256.159 34.7143 258.268 33.8393C260.378 32.9643 262.294 31.6818 263.908 30.065C265.523 28.4482 266.803 26.5288 267.677 24.4164C268.55 22.304 269 20.0399 269 17.7534C269.004 15.4644 268.557 13.1971 267.685 11.0813C266.813 8.96543 265.533 7.04253 263.919 5.4226C262.304 3.80268 260.386 2.51753 258.275 1.64068C256.164 0.763831 253.901 0.312497 251.616 0.3125L188.749 0.3125C186.463 0.312497 184.2 0.763831 182.089 1.64068C179.978 2.51753 178.06 3.80268 176.446 5.4226C174.831 7.04253 173.551 8.96543 172.679 11.0813C171.807 13.1971 171.36 15.4644 171.364 17.7534C171.364 22.3711 173.196 26.7998 176.456 30.065C179.716 33.3303 184.138 35.1647 188.749 35.1647ZM9.93673 35.214H17.6106V7.13119H27.5474V0.3125H0V7.11149H9.93673V35.214ZM37.5825 35.214H45.2564V8.44172H45.3548L54.1601 35.1943H60.0631L69.1636 8.44172H69.2619V35.1943H76.9358V0.3125H65.3758L57.3083 23.0743H57.21L49.1917 0.3125H37.5825V35.214ZM87.699 0.430743H99.2098C101.89 0.434868 104.559 0.765756 107.159 1.4161C109.527 1.97869 111.758 3.01063 113.721 4.45101C115.62 5.88085 117.148 7.74613 118.178 9.8902C119.342 12.4375 119.904 15.2192 119.821 18.0194C119.874 20.5991 119.329 23.156 118.227 25.4885C117.202 27.5874 115.731 29.4369 113.918 30.9079C112.063 32.3981 109.943 33.5247 107.671 34.2286C105.269 34.9924 102.763 35.3748 100.243 35.3618H87.699V0.430743ZM95.3729 28.2179H99.3082C100.963 28.2292 102.614 28.0473 104.227 27.676C105.667 27.3834 107.028 26.789 108.222 25.9319C109.361 25.0683 110.267 23.9338 110.858 22.6309C111.549 21.0549 111.885 19.3459 111.842 17.6253C111.872 16.0835 111.534 14.557 110.858 13.1715C110.245 11.9436 109.36 10.872 108.271 10.038C107.139 9.19618 105.862 8.57144 104.503 8.19538C103.004 7.77569 101.455 7.56676 99.8985 7.57461H95.3729V28.2179ZM130.939 0.430743H143.925C145.449 0.431487 146.971 0.540148 148.48 0.755912C149.912 0.941614 151.3 1.37505 152.583 2.03688C153.781 2.65976 154.798 3.58319 155.534 4.71706C156.351 6.1007 156.744 7.69373 156.666 9.29899C156.733 11.0865 156.149 12.8376 155.023 14.2258C153.873 15.5595 152.358 16.5257 150.664 17.0045V17.0636C151.754 17.2194 152.811 17.5522 153.793 18.049C154.7 18.5052 155.517 19.1229 156.203 19.8719C156.883 20.6219 157.408 21.4993 157.748 22.4535C158.114 23.4639 158.298 24.5318 158.289 25.6067C158.348 27.2258 157.938 28.8273 157.109 30.2182C156.337 31.4289 155.292 32.4414 154.059 33.1743C152.762 33.9539 151.341 34.5039 149.858 34.8001C148.328 35.1285 146.768 35.2937 145.204 35.2928H130.939V0.430743ZM138.612 14.3736H144.171C144.761 14.3768 145.348 14.3107 145.922 14.1765C146.471 14.0571 146.994 13.8402 147.467 13.536C147.928 13.2383 148.31 12.8324 148.579 12.3536C148.867 11.808 149.009 11.197 148.992 10.58C149.023 9.95285 148.873 9.32999 148.559 8.7866C148.254 8.32098 147.838 7.93842 147.349 7.67314C146.801 7.39746 146.213 7.20802 145.607 7.11149C145.008 6.99533 144.398 6.93594 143.787 6.93412H138.573L138.612 14.3736ZM138.612 28.8091H145.499C146.105 28.8107 146.709 28.7446 147.3 28.612C147.887 28.4917 148.445 28.2574 148.943 27.9223C149.439 27.5942 149.853 27.1558 150.153 26.6413C150.476 26.0539 150.636 25.3903 150.615 24.7199C150.641 24.0126 150.426 23.3175 150.005 22.7492C149.592 22.2377 149.058 21.838 148.451 21.5864C147.82 21.3234 147.159 21.1413 146.483 21.0445C145.815 20.9495 145.141 20.9001 144.466 20.8967H138.662L138.612 28.8091Z" fill="url(#paint0_linear_231_419)"/>
</g>
<defs>
<linearGradient id="paint0_linear_231_419" x1="0" y1="17.8125" x2="269" y2="17.8125" gradientUnits="userSpaceOnUse">
<stop stop-color="#90CEA1"/>
<stop offset="0.56" stop-color="#3CBEC9"/>
<stop offset="1" stop-color="#00B3E5"/>
</linearGradient>
<clipPath id="clip0_231_419">
<rect width="269" height="35" fill="white" transform="translate(0 0.3125)"/>
</clipPath>
</defs>
</svg>
