<svg width="140" height="61" viewBox="0 0 140 61" fill="none" xmlns="http://www.w3.org/2000/svg">
<g clip-path="url(#clip0_586_337)">
<path d="M77.7639 27.0407H126.996C130.444 27.0407 133.75 25.6715 136.189 23.2341C138.627 20.7967 139.998 17.4907 140 14.0427C140 10.5934 138.63 7.28547 136.191 4.84648C133.753 2.4075 130.445 1.03729 126.996 1.03729H77.7639C74.3151 1.03729 71.0076 2.4075 68.569 4.84648C66.1303 7.28547 64.7603 10.5934 64.7603 14.0427C64.7623 17.4907 66.1331 20.7967 68.5716 23.2341C71.01 25.6715 74.3164 27.0407 77.7639 27.0407ZM13.0036 60.1614H69.5952C73.0427 60.1614 76.3491 58.7922 78.7876 56.3548C81.226 53.9175 82.5969 50.6114 82.5988 47.1634C82.5988 43.7142 81.2288 40.4062 78.7902 37.9672C76.3515 35.5282 73.044 34.158 69.5952 34.158H13.0036C9.55481 34.158 6.2473 35.5282 3.80866 37.9672C1.37002 40.4062 0 43.7142 0 47.1634C0.00195104 50.6114 1.37283 53.9175 3.81126 56.3548C6.24969 58.7922 9.55609 60.1614 13.0036 60.1614ZM7.66085 26.5697H13.401V5.59323H20.8337V0.5H0.228133V5.57851H7.66085V26.5697ZM28.34 26.5697H34.0801V6.57213H34.1537L40.7769 26.555H45.1924L52.0364 6.57213H52.11V26.555H57.8501V0.5H49.1295L43.095 17.502H43.0214L37.0238 0.5H28.34V26.5697ZM112.175 41.474C111.407 39.873 110.267 38.4797 108.849 37.4112C107.378 36.3353 105.706 35.5645 103.933 35.1443C101.99 34.6589 99.9962 34.4118 97.9941 34.4082H89.3839V60.4632H98.7668C100.652 60.4723 102.526 60.1867 104.323 59.6168C106.019 59.1005 107.604 58.2717 108.996 57.1732C110.35 56.0742 111.447 54.6926 112.212 53.1251C113.038 51.3835 113.449 49.4736 113.411 47.5461C113.471 45.4539 113.048 43.3761 112.175 41.474ZM106.707 50.9907C106.277 51.9728 105.609 52.8327 104.765 53.4931C103.887 54.1385 102.884 54.5947 101.821 54.8327C100.614 55.1107 99.3794 55.2465 98.1413 55.2375H95.1608V39.7812H98.546C99.7076 39.7754 100.864 39.9315 101.983 40.2449C103.012 40.5223 103.98 40.9891 104.838 41.6212C105.625 42.2404 106.263 43.0275 106.707 43.9249C107.213 44.9598 107.465 46.1001 107.443 47.2517C107.476 48.537 107.224 49.8136 106.707 50.9907ZM139.551 50.895C139.291 50.1834 138.896 49.5286 138.388 48.9666C137.883 48.4078 137.279 47.9463 136.607 47.605C135.875 47.2351 135.087 46.9865 134.275 46.869V46.7954C135.537 46.4329 136.667 45.7119 137.527 44.7198C138.376 43.6856 138.815 42.3764 138.764 41.0397C138.819 39.841 138.525 38.6521 137.917 37.6173C137.363 36.7736 136.603 36.0847 135.71 35.6153C134.748 35.1187 133.707 34.7949 132.634 34.6585C131.507 34.4976 130.371 34.4164 129.234 34.4156H119.52V60.4706H130.19C131.358 60.4712 132.522 60.3479 133.664 60.1026C134.775 59.88 135.84 59.4693 136.813 58.8881C137.734 58.3385 138.515 57.5827 139.095 56.6801C139.715 55.6412 140.022 54.4449 139.978 53.2355C139.979 52.4378 139.842 51.646 139.573 50.895H139.551ZM125.26 39.3027H129.16C129.617 39.3045 130.073 39.3489 130.521 39.4352C130.957 39.5135 131.378 39.6548 131.772 39.8548C132.136 40.0531 132.445 40.339 132.67 40.6865C132.919 41.0878 133.042 41.5543 133.024 42.026C133.034 42.4875 132.925 42.944 132.707 43.3508C132.509 43.7081 132.226 44.0114 131.883 44.2341C131.526 44.4601 131.133 44.622 130.72 44.7125C130.293 44.813 129.856 44.8625 129.418 44.8597H125.26V39.3027ZM133.885 54.0231C133.663 54.4071 133.356 54.7346 132.987 54.9799C132.613 55.2316 132.192 55.4067 131.75 55.4951C131.311 55.5941 130.862 55.6435 130.411 55.6423H125.26V49.7542H129.602C130.094 49.7588 130.586 49.7957 131.073 49.8646C131.591 49.9357 132.098 50.0717 132.582 50.2694C133.033 50.4584 133.43 50.7569 133.737 51.1379C134.058 51.5601 134.221 52.0804 134.201 52.6099C134.225 53.1009 134.115 53.5891 133.885 54.0231Z" fill="url(#paint0_linear_586_337)"/>
</g>
<defs>
<linearGradient id="paint0_linear_586_337" x1="0" y1="30.5" x2="140" y2="30.5" gradientUnits="userSpaceOnUse">
<stop stop-color="#90CEA1"/>
<stop offset="0.56" stop-color="#3CBEC9"/>
<stop offset="1" stop-color="#00B3E5"/>
</linearGradient>
<clipPath id="clip0_586_337">
<rect width="140" height="60" fill="white" transform="translate(0 0.5)"/>
</clipPath>
</defs>
</svg>
